<?xml version="1.0" encoding="UTF-8"?>
<!DOCTYPE svg PUBLIC "-//W3C//DTD SVG 1.1//EN" "http://www.w3.org/Graphics/SVG/1.1/DTD/svg11.dtd">
<!-- Creator: CorelDRAW -->
<svg xmlns="http://www.w3.org/2000/svg" xml:space="preserve" width="224px" height="224px" version="1.1" style="shape-rendering:geometricPrecision; text-rendering:geometricPrecision; image-rendering:optimizeQuality; fill-rule:evenodd; clip-rule:evenodd"
viewBox="0 0 68.339 68.339"
 xmlns:xlink="http://www.w3.org/1999/xlink"
 xmlns:xodm="http://www.corel.com/coreldraw/odm/2003">
 <defs>
  <style type="text/css">
   <![CDATA[
    .fil0 {fill:#5534eb}
   ]]>
  </style>
 </defs>
 <g id="Layer_x0020_1">
  <metadata id="CorelCorpID_0Corel-Layer"/>
  <path class="fil0" d="M34.169 0c18.871,0 34.17,15.298 34.17,34.169 0,18.871 -15.299,34.17 -34.17,34.17 -18.871,0 -34.169,-15.299 -34.169,-34.17 0,-18.871 15.298,-34.169 34.169,-34.169zm4.856 28.34c1.032,1.739 1.45,3.798 1.424,5.548 -0.023,1.489 -0.217,3.49 -0.628,4.727 -0.436,1.31 -1.046,2.971 -2.113,4.29 -4.786,5.922 -7.614,0.355 -6.026,-4.971 0.123,-0.413 0.304,-0.725 0.447,-1.104 0.145,-0.384 0.178,-0.669 0.32,-1.021 0.633,-1.578 3.811,-6.752 6.576,-7.469zm11.779 10.767c-0.071,1.746 -0.625,3.188 -0.572,3.702 0.625,0.285 4.362,1.538 4.886,1.53 0.509,-0.661 0.983,-3.436 1.066,-4.456 0.46,-5.688 -1.434,-10.566 -5.65,-14.329 -2.127,-1.899 -5.647,-3.259 -8.446,-3.228 -2.038,0.023 -0.966,-0.446 -3.985,-2.253 -1.432,-0.856 -2.618,-1.341 -4.044,-1.759 -5.976,-1.753 -13.894,-0.203 -18.445,5.853 -1.772,2.36 -3.213,5.609 -3.452,8.367 -0.221,2.558 -0.037,7.492 1.682,10.086 6.249,-2.475 4.618,-1.896 3.94,-4.749 -0.202,-0.853 -0.308,-1.335 -0.372,-2.184 -0.734,-9.8 9.094,-14.74 15.671,-12.13 0.763,0.302 1.217,0.35 1.691,0.908 -1.107,1.383 -2.415,1.421 -5.232,5.648 -1.696,2.545 -1.529,2.764 -2.429,4.807 -0.332,0.753 -0.401,0.963 -0.567,1.698 -0.293,1.292 -0.553,2.065 -0.625,3.577 -0.187,3.956 1.192,8.553 5.28,10.031 5.624,2.032 10.806,-2.838 12.59,-7.041 0.381,-0.896 1.044,-2.455 1.239,-3.349 1.205,-5.507 0.796,-6.392 -0.068,-11.373 1.435,-0.313 4.687,3.565 5.427,6.419 0.457,1.766 0.48,2.597 0.415,4.225z"/>
 </g>
</svg>
