<?xml version="1.0" encoding="UTF-8"?>
<!DOCTYPE svg PUBLIC "-//W3C//DTD SVG 1.1//EN" "http://www.w3.org/Graphics/SVG/1.1/DTD/svg11.dtd">
<!-- Creator: CorelDRAW -->
<svg xmlns="http://www.w3.org/2000/svg" xml:space="preserve" width="573px" height="174px" version="1.1" style="shape-rendering:geometricPrecision; text-rendering:geometricPrecision; image-rendering:optimizeQuality; fill-rule:evenodd; clip-rule:evenodd"
viewBox="0 0 426.597 129.934"
 xmlns:xlink="http://www.w3.org/1999/xlink"
 xmlns:xodm="http://www.corel.com/coreldraw/odm/2003">
 <defs>
  <style type="text/css">
   <![CDATA[
    .fil1 {fill:blue}
    .fil0 {fill:blue;fill-rule:nonzero}
   ]]>
  </style>
 </defs>
 <g id="Layer_x0020_1">
  <metadata id="CorelCorpID_0Corel-Layer"/>
  <path class="fil0" d="M177.28 100.932c-10.968,-0.1 -19.293,-3.726 -24.976,-10.879 -5.684,-7.153 -8.525,-16.381 -8.525,-27.685 0.099,-11.204 3.19,-20.332 9.273,-27.385 6.081,-7.052 14.607,-10.628 25.574,-10.728 11.367,0 19.967,3.626 25.799,10.878 5.833,7.253 8.75,16.581 8.75,27.985 0,11.304 -3.191,20.408 -9.572,27.31 -6.382,6.902 -15.156,10.404 -26.323,10.504zm21.387 -37.814c0,-7.802 -1.545,-14.18 -4.636,-19.131 -3.091,-4.952 -8.076,-7.428 -14.956,-7.428 -6.88,0 -12.015,2.326 -15.405,6.977 -3.39,4.652 -5.135,10.879 -5.234,18.682 0,8.103 1.47,14.53 4.412,19.282 2.941,4.752 7.852,7.127 14.731,7.127 6.78,0 11.965,-2.25 15.554,-6.752 3.59,-4.501 5.435,-10.754 5.534,-18.757zm90.484 -27.459c3.091,-3.402 7.055,-6.228 11.89,-8.478 4.836,-2.251 9.398,-3.377 13.685,-3.377 8.874,0 15.33,2.576 19.368,7.728 4.038,5.152 6.057,11.629 6.057,19.432l0 48.017 -14.507 0 0 -46.666c0,-4.902 -1.172,-8.804 -3.515,-11.705 -2.343,-2.901 -5.857,-4.401 -10.544,-4.501 -3.09,0 -6.381,0.85 -9.871,2.551 -3.489,1.7 -6.68,3.951 -9.572,6.752 0.1,1.001 0.175,1.926 0.225,2.776 0.05,0.85 0.075,1.776 0.075,2.776l0 48.017 -14.508 0 0 -46.666c0,-4.902 -1.146,-8.804 -3.439,-11.705 -2.294,-2.901 -5.734,-4.401 -10.32,-4.501 -2.991,0 -6.132,0.75 -9.422,2.251 -3.291,1.5 -6.332,3.651 -9.124,6.452l0 54.169 -14.357 0 0 -72.776 8.076 0 3.888 7.803c3.191,-3.001 7.005,-5.452 11.442,-7.353 4.437,-1.9 8.599,-2.851 12.488,-2.851 5.484,0 10.046,1.076 13.685,3.227 3.639,2.15 6.406,5.026 8.3,8.628zm101.552 65.273c-10.968,-0.1 -19.294,-3.726 -24.977,-10.879 -5.683,-7.153 -8.525,-16.381 -8.525,-27.685 0.1,-11.204 3.191,-20.332 9.273,-27.385 6.082,-7.052 14.607,-10.628 25.575,-10.728 11.366,0 19.966,3.626 25.799,10.878 5.833,7.253 8.749,16.581 8.749,27.985 0,11.304 -3.191,20.408 -9.572,27.31 -6.381,6.902 -15.155,10.404 -26.322,10.504zm21.387 -37.814c0,-7.802 -1.546,-14.18 -4.637,-19.131 -3.091,-4.952 -8.076,-7.428 -14.956,-7.428 -6.879,0 -12.014,2.326 -15.404,6.977 -3.39,4.652 -5.135,10.879 -5.235,18.682 0,8.103 1.471,14.53 4.412,19.282 2.942,4.752 7.852,7.127 14.732,7.127 6.78,0 11.965,-2.25 15.554,-6.752 3.59,-4.501 5.434,-10.754 5.534,-18.757z"/>
  <path class="fil1" d="M64.967 0c35.88,0 64.967,29.087 64.967,64.967 0,35.88 -29.087,64.967 -64.967,64.967 -35.88,0 -64.967,-29.087 -64.967,-64.967 0,-35.88 29.087,-64.967 64.967,-64.967zm9.231 53.883c1.963,3.306 2.759,7.222 2.708,10.55 -0.044,2.83 -0.412,6.635 -1.194,8.986 -0.828,2.492 -1.989,5.65 -4.017,8.158 -9.1,11.259 -14.476,0.674 -11.457,-9.453 0.234,-0.785 0.578,-1.377 0.85,-2.098 0.275,-0.731 0.338,-1.273 0.607,-1.942 1.205,-2.999 7.248,-12.838 12.503,-14.201zm22.396 20.472c-0.134,3.32 -1.188,6.062 -1.087,7.038 1.188,0.542 8.294,2.925 9.29,2.91 0.968,-1.257 1.869,-6.533 2.026,-8.474 0.875,-10.813 -2.725,-20.089 -10.741,-27.243 -4.045,-3.611 -10.738,-6.197 -16.06,-6.137 -3.874,0.043 -1.836,-0.848 -7.577,-4.284 -2.721,-1.628 -4.977,-2.55 -7.687,-3.345 -11.363,-3.332 -26.419,-0.386 -35.07,11.129 -3.371,4.487 -6.109,10.665 -6.563,15.909 -0.422,4.864 -0.072,14.244 3.197,19.177 11.882,-4.707 8.779,-3.606 7.492,-9.031 -0.385,-1.622 -0.587,-2.537 -0.708,-4.152 -1.396,-18.632 17.29,-28.026 29.796,-23.063 1.449,0.574 2.313,0.666 3.214,1.726 -2.105,2.629 -4.592,2.703 -9.948,10.739 -3.224,4.838 -2.905,5.256 -4.618,9.141 -0.631,1.43 -0.762,1.83 -1.078,3.227 -0.556,2.457 -1.052,3.926 -1.188,6.802 -0.356,7.52 2.266,16.262 10.038,19.071 10.693,3.865 20.546,-5.395 23.939,-13.386 0.725,-1.704 1.984,-4.669 2.356,-6.368 2.29,-10.471 1.512,-12.153 -0.129,-21.623 2.727,-0.595 8.911,6.778 10.317,12.204 0.87,3.357 0.914,4.938 0.789,8.033z"/>
 </g>
</svg>
