<?xml version="1.0" encoding="UTF-8"?>
<!DOCTYPE svg PUBLIC "-//W3C//DTD SVG 1.1//EN" "http://www.w3.org/Graphics/SVG/1.1/DTD/svg11.dtd">
<!-- Creator: CorelDRAW -->
<svg xmlns="http://www.w3.org/2000/svg" xml:space="preserve" width="423px" height="108px" version="1.1" style="shape-rendering:geometricPrecision; text-rendering:geometricPrecision; image-rendering:optimizeQuality; fill-rule:evenodd; clip-rule:evenodd"
viewBox="0 0 489.764 125.225"
 xmlns:xlink="http://www.w3.org/1999/xlink"
 xmlns:xodm="http://www.corel.com/coreldraw/odm/2003">
 <defs>
  <style type="text/css">
   <![CDATA[
    .fil0 {fill:blue}
    .fil1 {fill:blue;fill-rule:nonzero}
   ]]>
  </style>
 </defs>
 <g id="Layer_x0020_1">
  <metadata id="CorelCorpID_0Corel-Layer"/>
  <path class="fil0" d="M102.019 40.534c3.909,6.584 5.493,14.385 5.392,21.013 -0.087,5.638 -0.82,13.216 -2.377,17.899 -1.65,4.965 -3.963,11.254 -8.002,16.25 -18.125,22.426 -28.835,1.344 -22.821,-18.828 0.466,-1.564 1.151,-2.744 1.693,-4.18 0.549,-1.455 0.675,-2.535 1.21,-3.868 2.4,-5.974 14.436,-25.572 24.905,-28.286zm44.608 40.777c-0.265,6.614 -2.366,12.075 -2.163,14.018 2.364,1.081 16.52,5.827 18.503,5.798 1.928,-2.504 3.724,-13.014 4.036,-16.879 1.744,-21.54 -5.429,-40.014 -21.395,-54.265 -8.057,-7.192 -21.388,-12.343 -31.99,-12.224 -7.717,0.086 -3.657,-1.691 -15.091,-8.533 -5.422,-3.244 -9.915,-5.079 -15.313,-6.663 -22.633,-6.638 -52.622,-0.769 -69.854,22.167 -6.714,8.937 -12.169,21.243 -13.074,31.688 -0.84,9.688 -0.142,28.374 6.369,38.199 23.667,-9.375 17.487,-7.183 14.922,-17.989 -0.766,-3.231 -1.169,-5.053 -1.41,-8.271 -2.78,-37.112 34.441,-55.823 59.351,-45.938 2.887,1.145 4.608,1.326 6.402,3.438 -4.193,5.237 -9.148,5.384 -19.816,21.392 -6.422,9.637 -5.787,10.469 -9.198,18.206 -1.256,2.85 -1.517,3.646 -2.147,6.429 -1.108,4.894 -2.096,7.819 -2.367,13.547 -0.708,14.981 4.514,32.394 19.995,37.988 21.299,7.699 40.925,-10.745 47.684,-26.662 1.443,-3.396 3.95,-9.3 4.691,-12.686 4.561,-20.855 3.013,-24.207 -0.257,-43.07 5.432,-1.185 17.75,13.501 20.551,24.31 1.733,6.686 1.82,9.836 1.571,16z"/>
  <path class="fil1" d="M221.23 102.061c-11.798,-0.103 -21.006,-3.706 -27.623,-10.808 -6.617,-7.102 -9.925,-16.674 -9.925,-28.717 0,-11.94 3.462,-21.461 10.387,-28.564 6.925,-7.102 16.389,-10.652 28.392,-10.652 12.414,0 22.032,3.679 28.855,11.038 6.821,7.36 10.233,17.01 10.233,28.95 0,11.94 -3.694,21.358 -11.08,28.254 -7.387,6.896 -17.133,10.396 -29.239,10.499zm19.698 -38.753c0,-7.103 -1.564,-12.687 -4.694,-16.752 -3.129,-4.066 -7.566,-6.099 -13.311,-6.099 -5.847,0 -10.413,1.802 -13.696,5.404 -3.283,3.603 -4.924,9.109 -4.924,16.52 0,7.411 1.41,13.021 4.231,16.829 2.822,3.809 7.157,5.713 13.004,5.713 5.745,0 10.413,-1.724 14.004,-5.172 3.59,-3.449 5.386,-8.929 5.386,-16.443zm100.797 -29.181c3.18,-3.602 7.412,-6.459 12.695,-8.569 5.284,-2.11 10.028,-3.165 14.235,-3.165 10.156,0 17.363,2.985 21.621,8.955 4.257,5.97 6.386,13.278 6.386,21.924l0 46.936 -20.159 0 0 -46.01c0,-4.734 -1.129,-8.363 -3.386,-10.885 -2.257,-2.521 -5.54,-3.782 -9.848,-3.782 -2.873,0 -5.9,0.772 -9.08,2.316 -3.18,1.544 -6.052,3.294 -8.618,5.249 0.103,1.029 0.205,2.059 0.309,3.088 0.102,1.029 0.153,2.059 0.153,3.088l0 46.936 -20.159 0 0 -46.01c0,-4.734 -1.129,-8.363 -3.386,-10.885 -2.257,-2.521 -5.488,-3.782 -9.695,-3.782 -2.564,0 -5.155,0.54 -7.771,1.621 -2.616,1.081 -5.104,2.445 -7.464,4.091l0 54.965 -20.005 0 0 -74.881 10.464 0 4.925 6.793c3.385,-3.088 7.464,-5.481 12.234,-7.179 4.77,-1.699 9.054,-2.548 12.85,-2.548 5.847,0 10.721,1.055 14.619,3.165 3.899,2.11 6.925,4.967 9.08,8.569zm107.721 67.934c-11.798,-0.103 -21.006,-3.706 -27.623,-10.808 -6.617,-7.102 -9.925,-16.674 -9.925,-28.717 0,-11.94 3.461,-21.461 10.386,-28.564 6.925,-7.102 16.39,-10.652 28.393,-10.652 12.413,0 22.032,3.679 28.854,11.038 6.822,7.36 10.233,17.01 10.233,28.95 0,11.94 -3.693,21.358 -11.079,28.254 -7.387,6.896 -17.133,10.396 -29.239,10.499zm19.697 -38.753c0,-7.103 -1.564,-12.687 -4.693,-16.752 -3.129,-4.066 -7.566,-6.099 -13.311,-6.099 -5.848,0 -10.414,1.802 -13.696,5.404 -3.283,3.603 -4.925,9.109 -4.925,16.52 0,7.411 1.411,13.021 4.232,16.829 2.821,3.809 7.156,5.713 13.003,5.713 5.745,0 10.413,-1.724 14.004,-5.172 3.591,-3.449 5.386,-8.929 5.386,-16.443z"/>
 </g>
</svg>
