<?xml version="1.0" encoding="UTF-8"?>
<!DOCTYPE svg PUBLIC "-//W3C//DTD SVG 1.1//EN" "http://www.w3.org/Graphics/SVG/1.1/DTD/svg11.dtd">
<!-- Creator: CorelDRAW -->
<svg xmlns="http://www.w3.org/2000/svg" xml:space="preserve" width="774px" height="123px" version="1.1" style="shape-rendering:geometricPrecision; text-rendering:geometricPrecision; image-rendering:optimizeQuality; fill-rule:evenodd; clip-rule:evenodd"
viewBox="0 0 789.021 125.695"
 xmlns:xlink="http://www.w3.org/1999/xlink"
 xmlns:xodm="http://www.corel.com/coreldraw/odm/2003">
 <defs>
  <style type="text/css">
   <![CDATA[
    .fil0 {fill:black}
    .fil1 {fill:black;fill-rule:nonzero}
   ]]>
  </style>
 </defs>
 <g id="Layer_x0020_1">
  <metadata id="CorelCorpID_0Corel-Layer"/>
  <path class="fil0" d="M89.789 43.416c3.441,5.794 4.835,12.66 4.746,18.493 -0.077,4.963 -0.722,11.632 -2.092,15.754 -1.453,4.37 -3.488,9.905 -7.043,14.302 -15.952,19.738 -25.378,1.182 -20.085,-16.571 0.41,-1.377 1.013,-2.415 1.49,-3.679 0.483,-1.281 0.594,-2.232 1.065,-3.405 2.112,-5.257 12.705,-22.506 21.919,-24.894zm39.261 35.888c-0.234,5.821 -2.083,10.628 -1.904,12.338 2.081,0.951 14.54,5.128 16.285,5.102 1.697,-2.203 3.277,-11.453 3.552,-14.855 1.535,-18.957 -4.778,-35.217 -18.83,-47.76 -7.091,-6.33 -18.824,-10.864 -28.155,-10.758 -6.792,0.075 -3.219,-1.488 -13.282,-7.511 -4.772,-2.854 -8.727,-4.47 -13.478,-5.864 -19.92,-5.842 -46.313,-0.677 -61.48,19.51 -5.909,7.866 -10.71,18.697 -11.506,27.889 -0.739,8.527 -0.125,24.973 5.605,33.62 20.831,-8.251 15.391,-6.322 13.134,-15.832 -0.674,-2.844 -1.03,-4.447 -1.242,-7.28 -2.446,-32.663 30.313,-49.131 52.237,-40.431 2.54,1.007 4.055,1.167 5.634,3.026 -3.69,4.609 -8.051,4.738 -17.44,18.828 -5.653,8.481 -5.094,9.213 -8.095,16.023 -1.106,2.508 -1.336,3.209 -1.89,5.658 -0.976,4.308 -1.845,6.882 -2.084,11.924 -0.623,13.184 3.974,28.51 17.599,33.433 18.746,6.777 36.018,-9.457 41.967,-23.466 1.27,-2.988 3.477,-8.184 4.129,-11.165 4.015,-18.355 2.652,-21.305 -0.226,-37.906 4.781,-1.044 15.622,11.882 18.087,21.395 1.525,5.884 1.602,8.657 1.383,14.082z"/>
  <path class="fil1" d="M177.509 76.232c0,1.903 0.768,3.601 2.303,5.096 1.535,1.495 3.566,2.242 6.095,2.242 2.437,0 4.898,-0.543 7.381,-1.63 2.483,-1.087 4.853,-2.718 7.111,-4.892l0 -10.056 -13.274 0c-3.07,0 -5.44,0.951 -7.11,2.854 -1.671,1.902 -2.506,4.031 -2.506,6.386zm8.668 21.334c-8.036,0 -13.995,-1.97 -17.878,-5.911 -3.883,-3.94 -5.824,-9.081 -5.824,-15.423 0,-6.794 2.303,-12.003 6.908,-15.627 4.605,-3.623 10.609,-5.435 18.013,-5.435l12.867 0c-0.091,-3.352 -1.061,-5.957 -2.912,-7.814 -1.851,-1.857 -4.402,-2.785 -7.652,-2.785 -3.071,0 -6.411,0.43 -10.023,1.29 -3.611,0.861 -6.636,1.88 -9.075,3.058l-4.74 -14.676c2.528,-1.721 6.388,-3.148 11.58,-4.28 5.192,-1.133 9.187,-1.699 11.987,-1.699 7.855,0 14.582,2.288 20.18,6.863 5.599,4.575 8.398,10.395 8.398,17.461l0 43.348 -9.075 0 -4.334 -5.572c-2.438,1.903 -5.305,3.579 -8.6,5.028 -3.296,1.45 -6.569,2.174 -9.82,2.174zm84.109 -67.535l3.521 14.132c-2.98,0 -6.434,0.861 -10.361,2.582 -3.928,1.721 -7.788,4.258 -11.581,7.61l0 41.581 -17.607 0 0 -65.905 9.21 0 5.824 9.648c2.709,-2.356 6.005,-4.552 9.887,-6.591 3.883,-2.038 7.585,-3.057 11.107,-3.057zm30.88 -30.031l0 54.083 28.171 -25.955 9.888 12.502 -18.42 16.171 24.108 39.135 -20.181 0 -16.523 -27.857 -7.043 6.251 0 21.606 -17.472 0 0 -94.441 17.472 -1.495zm86.953 97.566c-11.377,0 -20.339,-3.125 -26.885,-9.376 -6.546,-6.25 -9.819,-14.63 -9.819,-25.139 0,-10.508 2.956,-18.933 8.871,-25.275 5.914,-6.341 13.973,-9.512 24.176,-9.512 10.293,0 17.855,3.42 22.686,10.26 4.83,6.839 7.246,14.925 7.246,24.255l0 5.436 -44.289 0c0.813,4.348 2.799,7.813 5.959,10.395 3.161,2.582 7.314,3.873 12.461,3.873 2.98,0 5.666,-0.385 8.059,-1.155 2.393,-0.77 5.169,-1.88 8.329,-3.329l5.147 12.773c-3.07,2.355 -6.795,4.077 -11.174,5.164 -4.379,1.087 -7.968,1.63 -10.767,1.63zm9.616 -41.173c-0.903,-4.439 -2.528,-7.723 -4.876,-9.852 -2.348,-2.129 -5.282,-3.193 -8.804,-3.193 -3.611,0 -6.636,1.109 -9.074,3.329 -2.438,2.219 -4.018,5.458 -4.741,9.716l27.495 0zm70.835 38.184c-1.444,1.178 -3.499,2.152 -6.163,2.922 -2.663,0.77 -5.033,1.155 -7.11,1.155 -8.126,0 -14.515,-2.061 -19.165,-6.183 -4.65,-4.122 -6.975,-9.988 -6.975,-17.598l0 -31.118 -8.803 0 0 -13.588 8.803 0 0 -15.627 17.472 -3.126 0 18.753 11.919 0 5.417 13.588 -17.336 0 0 27.993c0,3.443 0.812,6.273 2.438,8.493 1.625,2.219 4.018,3.329 7.178,3.329 1.174,0 2.348,-0.136 3.522,-0.407 1.173,-0.272 2.392,-0.725 3.656,-1.359l5.147 12.773zm39.82 -12.094c6.049,0 10.293,-2.197 12.731,-6.591 2.438,-4.393 3.656,-8.855 3.656,-13.384 0,-5.164 -1.083,-9.784 -3.25,-13.861 -2.167,-4.076 -6.546,-6.115 -13.137,-6.115 -1.897,0 -3.86,0.34 -5.892,1.02 -2.032,0.679 -3.95,1.608 -5.757,2.785l0 32.341c1.807,1.087 3.725,1.993 5.757,2.718 2.032,0.725 3.995,1.087 5.892,1.087zm-29.12 -52.452l8.939 0 3.792 4.892c2.98,-2.265 6.456,-4.077 10.429,-5.436 3.973,-1.359 7.494,-2.038 10.564,-2.038 9.662,0 17.066,3.352 22.212,10.055 5.147,6.704 7.72,15.039 7.72,25.004 0,9.965 -2.64,18.299 -7.923,25.003 -5.282,6.703 -12.618,10.055 -22.009,10.055 -2.347,0 -4.988,-0.407 -7.923,-1.223 -2.935,-0.815 -5.711,-1.947 -8.33,-3.397l0 31.39 -17.471 1.359 0 -95.664zm96.162 -30.031l0 95.936 -17.472 0 0 -94.441 17.472 -1.495zm30.745 76.232c0,1.903 0.768,3.601 2.303,5.096 1.535,1.495 3.566,2.242 6.094,2.242 2.438,0 4.899,-0.543 7.382,-1.63 2.483,-1.087 4.853,-2.718 7.11,-4.892l0 -10.056 -13.272 0c-3.07,0 -5.441,0.951 -7.111,2.854 -1.671,1.902 -2.506,4.031 -2.506,6.386zm8.668 21.334c-8.036,0 -13.995,-1.97 -17.878,-5.911 -3.882,-3.94 -5.824,-9.081 -5.824,-15.423 0,-6.794 2.303,-12.003 6.908,-15.627 4.605,-3.623 10.609,-5.435 18.013,-5.435l12.867 0c-0.09,-3.352 -1.061,-5.957 -2.912,-7.814 -1.851,-1.857 -4.402,-2.785 -7.652,-2.785 -3.07,0 -6.411,0.43 -10.023,1.29 -3.612,0.861 -6.636,1.88 -9.074,3.058l-4.74 -14.676c2.528,-1.721 6.388,-3.148 11.58,-4.28 5.191,-1.133 9.187,-1.699 11.986,-1.699 7.855,0 14.582,2.288 20.18,6.863 5.599,4.575 8.398,10.395 8.398,17.461l0 43.348 -9.075 0 -4.334 -5.572c-2.438,1.903 -5.304,3.579 -8.6,5.028 -3.296,1.45 -6.569,2.174 -9.82,2.174zm79.368 -54.218c-4.966,0 -8.849,1.879 -11.648,5.639 -2.799,3.759 -4.198,8.448 -4.198,14.064 0,5.707 1.399,10.373 4.198,13.997 2.799,3.623 6.682,5.435 11.648,5.435 3.07,0 5.847,-0.385 8.33,-1.155 2.483,-0.77 5.304,-1.88 8.465,-3.329l5.011 12.773c-3.07,2.355 -6.794,4.077 -11.174,5.164 -4.379,1.087 -7.968,1.63 -10.767,1.63 -10.655,0 -18.962,-3.125 -24.921,-9.376 -5.96,-6.25 -8.939,-14.63 -8.939,-25.139 0,-10.508 2.979,-18.933 8.939,-25.275 5.959,-6.341 14.266,-9.512 24.921,-9.512 2.799,0 6.343,0.589 10.632,1.767 4.289,1.177 8.059,2.899 11.309,5.163l-5.011 12.638c-3.161,-1.449 -5.982,-2.559 -8.465,-3.329 -2.483,-0.77 -5.26,-1.155 -8.33,-1.155zm68.533 54.218c-11.377,0 -20.339,-3.125 -26.885,-9.376 -6.547,-6.25 -9.819,-14.63 -9.819,-25.139 0,-10.508 2.957,-18.933 8.871,-25.275 5.914,-6.341 13.973,-9.512 24.176,-9.512 10.294,0 17.855,3.42 22.686,10.26 4.831,6.839 7.246,14.925 7.246,24.255l0 5.436 -44.289 0c0.813,4.348 2.8,7.813 5.96,10.395 3.16,2.582 7.313,3.873 12.46,3.873 2.98,0 5.666,-0.385 8.059,-1.155 2.393,-0.77 5.169,-1.88 8.33,-3.329l5.146 12.773c-3.07,2.355 -6.794,4.077 -11.174,5.164 -4.379,1.087 -7.968,1.63 -10.767,1.63zm9.616 -41.173c-0.903,-4.439 -2.528,-7.723 -4.876,-9.852 -2.347,-2.129 -5.282,-3.193 -8.803,-3.193 -3.612,0 -6.637,1.109 -9.075,3.329 -2.438,2.219 -4.018,5.458 -4.74,9.716l27.494 0z"/>
 </g>
</svg>
