<?xml version="1.0" encoding="UTF-8"?>
<!DOCTYPE svg PUBLIC "-//W3C//DTD SVG 1.1//EN" "http://www.w3.org/Graphics/SVG/1.1/DTD/svg11.dtd">
<!-- Creator: CorelDRAW -->
<svg xmlns="http://www.w3.org/2000/svg" xml:space="preserve" width="774px" height="123px" version="1.1" style="shape-rendering:geometricPrecision; text-rendering:geometricPrecision; image-rendering:optimizeQuality; fill-rule:evenodd; clip-rule:evenodd"
viewBox="0 0 746.576 118.933"
 xmlns:xlink="http://www.w3.org/1999/xlink"
 xmlns:xodm="http://www.corel.com/coreldraw/odm/2003">
 <defs>
  <style type="text/css">
   <![CDATA[
    .fil0 {fill:black}
    .fil1 {fill:black;fill-rule:nonzero}
   ]]>
  </style>
 </defs>
 <g id="Layer_x0020_1">
  <metadata id="CorelCorpID_0Corel-Layer"/>
  <path class="fil0" d="M84.959 41.08c3.256,5.483 4.575,11.979 4.49,17.499 -0.072,4.695 -0.682,11.006 -1.979,14.906 -1.374,4.135 -3.3,9.372 -6.664,13.533 -15.094,18.676 -24.013,1.119 -19.004,-15.68 0.388,-1.303 0.958,-2.285 1.409,-3.481 0.457,-1.212 0.562,-2.112 1.008,-3.221 1.999,-4.975 12.022,-21.296 20.74,-23.556zm37.149 33.958c-0.221,5.508 -1.971,10.056 -1.802,11.674 1.969,0.9 13.758,4.852 15.409,4.828 1.606,-2.085 3.101,-10.837 3.361,-14.056 1.453,-17.938 -4.521,-33.323 -17.817,-45.191 -6.71,-5.989 -17.811,-10.279 -26.64,-10.18 -6.427,0.072 -3.046,-1.408 -12.568,-7.106 -4.515,-2.701 -8.257,-4.23 -12.752,-5.548 -18.849,-5.529 -43.823,-0.641 -58.173,18.46 -5.591,7.442 -10.134,17.691 -10.888,26.388 -0.699,8.069 -0.118,23.63 5.304,31.812 19.71,-7.807 14.563,-5.982 12.427,-14.981 -0.638,-2.69 -0.974,-4.208 -1.175,-6.888 -2.314,-30.906 28.683,-46.488 49.427,-38.256 2.404,0.953 3.837,1.105 5.332,2.864 -3.493,4.361 -7.619,4.483 -16.503,17.814 -5.348,8.025 -4.819,8.718 -7.66,15.161 -1.046,2.374 -1.264,3.037 -1.788,5.355 -0.923,4.075 -1.746,6.511 -1.971,11.281 -0.59,12.476 3.759,26.977 16.651,31.636 17.738,6.411 34.082,-8.949 39.71,-22.204 1.202,-2.828 3.29,-7.744 3.907,-10.564 3.799,-17.368 2.51,-20.159 -0.214,-35.868 4.524,-0.987 14.782,11.243 17.115,20.245 1.443,5.567 1.515,8.19 1.308,13.324z"/>
  <path class="fil1" d="M167.96 72.131c0,1.8 0.726,3.408 2.179,4.822 1.452,1.414 3.374,2.121 5.767,2.121 2.307,0 4.635,-0.514 6.984,-1.542 2.349,-1.029 4.592,-2.572 6.728,-4.629l0 -9.515 -12.559 0c-2.905,0 -5.147,0.9 -6.728,2.7 -1.581,1.801 -2.371,3.815 -2.371,6.043zm8.202 20.187c-7.604,0 -13.243,-1.864 -16.916,-5.593 -3.674,-3.729 -5.511,-8.593 -5.511,-14.594 0,-6.429 2.179,-11.357 6.536,-14.786 4.357,-3.429 10.038,-5.143 17.044,-5.143l12.175 0c-0.086,-3.171 -1.004,-5.636 -2.755,-7.393 -1.752,-1.757 -4.166,-2.636 -7.241,-2.636 -2.905,0 -6.066,0.407 -9.483,1.221 -3.418,0.815 -6.28,1.779 -8.587,2.894l-4.485 -13.887c2.392,-1.629 6.044,-2.979 10.957,-4.05 4.913,-1.072 8.693,-1.607 11.341,-1.607 7.433,0 13.799,2.164 19.096,6.493 5.297,4.329 7.945,9.836 7.945,16.522l0 41.016 -8.586 0 -4.101 -5.272c-2.307,1.8 -5.02,3.386 -8.138,4.758 -3.118,1.371 -6.216,2.057 -9.291,2.057zm79.584 -63.903l3.332 13.372c-2.82,0 -6.088,0.815 -9.804,2.443 -3.717,1.629 -7.369,4.029 -10.958,7.201l0 39.344 -16.66 0 0 -62.36 8.715 0 5.511 9.129c2.563,-2.228 5.681,-4.307 9.355,-6.236 3.673,-1.928 7.177,-2.893 10.509,-2.893zm29.219 -28.415l0 51.173 26.656 -24.558 9.355 11.829 -17.429 15.301 22.812 37.03 -19.095 0 -15.635 -26.358 -6.664 5.914 0 20.444 -16.532 0 0 -89.361 16.532 -1.414zm82.275 92.318c-10.765,0 -19.244,-2.958 -25.439,-8.872 -6.194,-5.914 -9.291,-13.843 -9.291,-23.786 0,-9.944 2.798,-17.916 8.395,-23.916 5.595,-6 13.221,-9 22.875,-9 9.74,0 16.895,3.236 21.466,9.707 4.57,6.472 6.856,14.122 6.856,22.951l0 5.143 -41.906 0c0.769,4.115 2.648,7.394 5.638,9.837 2.991,2.443 6.92,3.664 11.79,3.664 2.82,0 5.362,-0.365 7.626,-1.093 2.264,-0.729 4.891,-1.779 7.881,-3.15l4.87 12.086c-2.905,2.229 -6.429,3.857 -10.573,4.886 -4.143,1.029 -7.539,1.543 -10.188,1.543zm9.099 -38.959c-0.854,-4.2 -2.392,-7.307 -4.614,-9.322 -2.221,-2.014 -4.998,-3.021 -8.33,-3.021 -3.417,0 -6.279,1.05 -8.586,3.15 -2.307,2.1 -3.802,5.165 -4.486,9.193l26.016 0zm67.025 36.13c-1.367,1.115 -3.311,2.036 -5.831,2.765 -2.521,0.728 -4.763,1.093 -6.729,1.093 -7.689,0 -13.733,-1.951 -18.133,-5.851 -4.4,-3.9 -6.601,-9.45 -6.601,-16.651l0 -29.444 -8.329 0 0 -12.857 8.329 0 0 -14.786 16.533 -2.958 0 17.744 11.277 0 5.126 12.857 -16.403 0 0 26.488c0,3.257 0.768,5.935 2.307,8.035 1.537,2.1 3.801,3.15 6.792,3.15 1.11,0 2.221,-0.128 3.332,-0.385 1.11,-0.257 2.263,-0.686 3.46,-1.286l4.87 12.086zm37.677 -11.443c5.724,0 9.739,-2.079 12.046,-6.236 2.307,-4.157 3.46,-8.379 3.46,-12.665 0,-4.886 -1.025,-9.257 -3.075,-13.115 -2.051,-3.857 -6.195,-5.786 -12.431,-5.786 -1.794,0 -3.652,0.322 -5.575,0.965 -1.922,0.643 -3.738,1.521 -5.447,2.636l0 30.601c1.709,1.028 3.525,1.885 5.447,2.571 1.923,0.686 3.781,1.029 5.575,1.029zm-27.553 -49.631l8.458 0 3.588 4.629c2.819,-2.143 6.109,-3.857 9.868,-5.143 3.759,-1.286 7.091,-1.929 9.996,-1.929 9.142,0 16.147,3.172 21.017,9.515 4.87,6.343 7.305,14.229 7.305,23.658 0,9.429 -2.499,17.315 -7.497,23.658 -4.998,6.343 -11.939,9.515 -20.825,9.515 -2.221,0 -4.72,-0.386 -7.497,-1.157 -2.777,-0.772 -5.404,-1.843 -7.882,-3.215l0 29.702 -16.531 1.285 0 -90.518zm90.989 -28.415l0 90.775 -16.532 0 0 -89.361 16.532 -1.414zm29.091 72.131c0,1.8 0.726,3.408 2.179,4.822 1.452,1.414 3.375,2.121 5.767,2.121 2.306,0 4.635,-0.514 6.984,-1.542 2.35,-1.029 4.592,-2.572 6.728,-4.629l0 -9.515 -12.559 0c-2.905,0 -5.147,0.9 -6.728,2.7 -1.58,1.801 -2.371,3.815 -2.371,6.043zm8.202 20.187c-7.604,0 -13.242,-1.864 -16.916,-5.593 -3.674,-3.729 -5.511,-8.593 -5.511,-14.594 0,-6.429 2.179,-11.357 6.536,-14.786 4.357,-3.429 10.039,-5.143 17.044,-5.143l12.175 0c-0.085,-3.171 -1.004,-5.636 -2.755,-7.393 -1.752,-1.757 -4.165,-2.636 -7.241,-2.636 -2.905,0 -6.066,0.407 -9.484,1.221 -3.417,0.815 -6.279,1.779 -8.586,2.894l-4.485 -13.887c2.392,-1.629 6.045,-2.979 10.957,-4.05 4.913,-1.072 8.693,-1.607 11.342,-1.607 7.433,0 13.798,2.164 19.095,6.493 5.297,4.329 7.945,9.836 7.945,16.522l0 41.016 -8.586 0 -4.101 -5.272c-2.307,1.8 -5.019,3.386 -8.138,4.758 -3.118,1.371 -6.215,2.057 -9.291,2.057zm75.098 -51.302c-4.699,0 -8.373,1.778 -11.021,5.336 -2.649,3.557 -3.973,7.993 -3.973,13.308 0,5.4 1.324,9.814 3.973,13.243 2.648,3.428 6.322,5.143 11.021,5.143 2.905,0 5.532,-0.365 7.882,-1.093 2.349,-0.729 5.019,-1.779 8.009,-3.15l4.742 12.086c-2.905,2.229 -6.429,3.857 -10.572,4.886 -4.144,1.029 -7.54,1.543 -10.189,1.543 -10.081,0 -17.942,-2.958 -23.58,-8.872 -5.639,-5.914 -8.458,-13.843 -8.458,-23.786 0,-9.944 2.819,-17.916 8.458,-23.916 5.638,-6 13.499,-9 23.58,-9 2.649,0 6.002,0.557 10.06,1.671 4.059,1.115 7.626,2.743 10.701,4.886l-4.742 11.958c-2.99,-1.371 -5.66,-2.422 -8.009,-3.15 -2.35,-0.729 -4.977,-1.093 -7.882,-1.093zm64.846 51.302c-10.765,0 -19.244,-2.958 -25.438,-8.872 -6.195,-5.914 -9.291,-13.843 -9.291,-23.786 0,-9.944 2.798,-17.916 8.394,-23.916 5.596,-6 13.221,-9 22.875,-9 9.74,0 16.895,3.236 21.466,9.707 4.571,6.472 6.856,14.122 6.856,22.951l0 5.143 -41.906 0c0.769,4.115 2.649,7.394 5.639,9.837 2.99,2.443 6.92,3.664 11.79,3.664 2.819,0 5.361,-0.365 7.625,-1.093 2.264,-0.729 4.891,-1.779 7.882,-3.15l4.87 12.086c-2.906,2.229 -6.43,3.857 -10.574,4.886 -4.143,1.029 -7.539,1.543 -10.188,1.543zm9.099 -38.959c-0.854,-4.2 -2.392,-7.307 -4.613,-9.322 -2.222,-2.014 -4.998,-3.021 -8.33,-3.021 -3.418,0 -6.28,1.05 -8.587,3.15 -2.306,2.1 -3.802,5.165 -4.485,9.193l26.015 0z"/>
 </g>
</svg>
